<svg xmlns="http://www.w3.org/2000/svg" viewBox="0 0 800 600" width="800" height="600" role="img" aria-label="Água com Gás"><title>Água com Gás</title><defs><pattern id="g" width="48" height="48" patternUnits="userSpaceOnUse">
<rect width="48" height="48" fill="#F7F2EA"/>
<rect width="24" height="48" fill="#3E7C8C" opacity=".28"/>
<rect width="48" height="24" fill="#3E7C8C" opacity=".28"/>
</pattern></defs>
<rect width="800" height="600" fill="#EFE8DC"/>
<rect y="0" width="800" height="360" fill="#F4EEE4"/>
<rect y="380" width="800" height="220" fill="url(#g)"/>
<rect y="376" width="800" height="8" fill="#000" opacity=".05"/><ellipse cx="338" cy="452" rx="60" ry="14" fill="#2B2A28" opacity=".14"/><ellipse cx="488" cy="452" rx="70" ry="14" fill="#2B2A28" opacity=".14"/><path d="M310,110 L350,110 L350,150 C350,175 380,190 380,230 L380,440 C380,450 372,456 362,456 L298,456 C288,456 280,450 280,440 L280,230 C280,190 310,175 310,150Z" fill="#BFE0E6" opacity=".9"/><rect x="306" y="96" width="48" height="22" rx="5" fill="#3E7C8C"/><rect x="280" y="290" width="100" height="70" fill="#FBF8F2"/><rect x="280" y="306" width="100" height="6" fill="#3E7C8C"/><rect x="280" y="340" width="100" height="4" fill="#3E7C8C" opacity=".5"/><path d="M296,240 L296,430" stroke="#fff" stroke-width="7" stroke-linecap="round" opacity=".6"/><path d="M420,230 L540,230 L528,452 L432,452Z" fill="#FFFFFF" opacity=".5" stroke="#fff" stroke-width="4"/><path d="M424,270 L536,270 L528,448 L432,448Z" fill="#CFEAF0"/><circle cx="493.1" cy="327.1" r="3.4" fill="#FFFFFF" opacity="0.9"/><circle cx="478.6" cy="410.0" r="2.9" fill="#FFFFFF" opacity="0.9"/><circle cx="488.5" cy="344.6" r="3.4" fill="#FFFFFF" opacity="0.9"/><circle cx="481.6" cy="364.0" r="2.8" fill="#FFFFFF" opacity="0.9"/><circle cx="460.0" cy="384.9" r="4.3" fill="#FFFFFF" opacity="0.9"/><circle cx="507.9" cy="383.0" r="2.8" fill="#FFFFFF" opacity="0.9"/><circle cx="490.5" cy="381.7" r="4.2" fill="#FFFFFF" opacity="0.9"/><circle cx="449.8" cy="402.2" r="2.9" fill="#FFFFFF" opacity="0.9"/><circle cx="469.9" cy="386.9" r="2.2" fill="#FFFFFF" opacity="0.9"/><circle cx="520.2" cy="371.9" r="4.2" fill="#FFFFFF" opacity="0.9"/><circle cx="516.5" cy="356.1" r="4.2" fill="#FFFFFF" opacity="0.9"/><circle cx="454.3" cy="351.3" r="4.4" fill="#FFFFFF" opacity="0.9"/><circle cx="461.7" cy="363.8" r="3.4" fill="#FFFFFF" opacity="0.9"/><circle cx="508.0" cy="341.5" r="3.3" fill="#FFFFFF" opacity="0.9"/><circle cx="477.9" cy="345.9" r="3.7" fill="#FFFFFF" opacity="0.9"/><circle cx="471.3" cy="362.8" r="4.4" fill="#FFFFFF" opacity="0.9"/><circle cx="502.5" cy="336.0" r="2.7" fill="#FFFFFF" opacity="0.9"/><circle cx="484.9" cy="342.9" r="2.1" fill="#FFFFFF" opacity="0.9"/><circle cx="511.5" cy="347.5" r="2.6" fill="#FFFFFF" opacity="0.9"/><circle cx="460.8" cy="374.4" r="4.2" fill="#FFFFFF" opacity="0.9"/><circle cx="459.8" cy="407.1" r="3.0" fill="#FFFFFF" opacity="0.9"/><circle cx="459.0" cy="358.7" r="2.1" fill="#FFFFFF" opacity="0.9"/><circle cx="498.9" cy="373.5" r="3.0" fill="#FFFFFF" opacity="0.9"/><circle cx="508.5" cy="384.0" r="2.6" fill="#FFFFFF" opacity="0.9"/><circle cx="476.5" cy="398.4" r="2.7" fill="#FFFFFF" opacity="0.9"/><circle cx="446.0" cy="378.5" r="3.4" fill="#FFFFFF" opacity="0.9"/><circle cx="505" cy="262" r="30" fill="#E8D64A"/><circle cx="505" cy="262" r="24" fill="#F6EC9A"/><path d="M505,238 L505,286 M481,262 L529,262 M488,245 L522,279 M522,245 L488,279" stroke="#E8D64A" stroke-width="2"/></svg>