<svg xmlns="http://www.w3.org/2000/svg" viewBox="0 0 800 600" width="800" height="600" role="img" aria-label="Limonata Siciliana"><title>Limonata Siciliana</title><defs><pattern id="g" width="48" height="48" patternUnits="userSpaceOnUse">
<rect width="48" height="48" fill="#F7F2EA"/>
<rect width="24" height="48" fill="#D9A23A" opacity=".28"/>
<rect width="48" height="24" fill="#D9A23A" opacity=".28"/>
</pattern></defs>
<rect width="800" height="600" fill="#EFE8DC"/>
<rect y="0" width="800" height="360" fill="#F4EEE4"/>
<rect y="380" width="800" height="220" fill="url(#g)"/>
<rect y="376" width="800" height="8" fill="#000" opacity=".05"/><ellipse cx="408" cy="452" rx="75" ry="14" fill="#2B2A28" opacity=".14"/><path d="M430,90 L412,330" stroke="#E05A47" stroke-width="12" stroke-linecap="round"/><path d="M430,90 L412,330" stroke="#fff" stroke-width="12" stroke-dasharray="10 14" opacity=".8"/><path d="M340,150 L460,150 L446,452 L354,452Z" fill="#FFFFFF" opacity=".5" stroke="#fff" stroke-width="4"/><path d="M343,190 L457,190 L446,448 L354,448Z" fill="#F4D35E"/><rect x="352" y="210" width="40" height="40" rx="8" fill="#FFFBEA" opacity=".75" transform="rotate(10 372 230)"/><rect x="400" y="230" width="40" height="40" rx="8" fill="#FFFBEA" opacity=".75" transform="rotate(-12 420 250)"/><rect x="375" y="280" width="40" height="40" rx="8" fill="#FFFBEA" opacity=".75" transform="rotate(6 395 300)"/><rect x="410" y="310" width="40" height="40" rx="8" fill="#FFFBEA" opacity=".75" transform="rotate(15 430 330)"/><circle cx="409.8" cy="378.9" r="3.7" fill="#FFFBEA" opacity="0.9"/><circle cx="387.9" cy="388.5" r="2.9" fill="#FFFBEA" opacity="0.9"/><circle cx="402.0" cy="342.4" r="2.5" fill="#FFFBEA" opacity="0.9"/><circle cx="373.1" cy="395.5" r="4.0" fill="#FFFBEA" opacity="0.9"/><circle cx="413.6" cy="378.6" r="2.7" fill="#FFFBEA" opacity="0.9"/><circle cx="405.6" cy="404.0" r="2.4" fill="#FFFBEA" opacity="0.9"/><circle cx="361.1" cy="380.3" r="3.4" fill="#FFFBEA" opacity="0.9"/><circle cx="425.3" cy="401.8" r="3.6" fill="#FFFBEA" opacity="0.9"/><circle cx="397.6" cy="416.9" r="4.0" fill="#FFFBEA" opacity="0.9"/><circle cx="416.5" cy="400.0" r="3.6" fill="#FFFBEA" opacity="0.9"/><circle cx="386.1" cy="342.8" r="3.3" fill="#FFFBEA" opacity="0.9"/><circle cx="399.8" cy="356.3" r="3.5" fill="#FFFBEA" opacity="0.9"/><circle cx="410.4" cy="388.3" r="3.9" fill="#FFFBEA" opacity="0.9"/><circle cx="386.8" cy="385.8" r="3.1" fill="#FFFBEA" opacity="0.9"/><circle cx="386.9" cy="350.0" r="3.3" fill="#FFFBEA" opacity="0.9"/><circle cx="371.1" cy="360.1" r="4.0" fill="#FFFBEA" opacity="0.9"/><circle cx="395.8" cy="396.1" r="2.3" fill="#FFFBEA" opacity="0.9"/><circle cx="365.7" cy="387.6" r="3.8" fill="#FFFBEA" opacity="0.9"/><g transform="translate(372.0,158.0) rotate(-40) scale(0.9)">
<path d="M0,-26 C17,-15 17,13 0,26 C-17,13 -17,-15 0,-26Z" fill="#4F9A4E"/>
<path d="M0,-22 L0,22" stroke="#3B6E2E" stroke-width="2" stroke-linecap="round"/>
<path d="M0,-26 C8,-18 9,-8 7,-2" stroke="#fff" stroke-width="2" fill="none" opacity=".25"/></g><g transform="translate(392.0,146.0) rotate(10) scale(0.8)">
<path d="M0,-26 C17,-15 17,13 0,26 C-17,13 -17,-15 0,-26Z" fill="#62AE5C"/>
<path d="M0,-22 L0,22" stroke="#3B6E2E" stroke-width="2" stroke-linecap="round"/>
<path d="M0,-26 C8,-18 9,-8 7,-2" stroke="#fff" stroke-width="2" fill="none" opacity=".25"/></g><g transform="translate(356.0,172.0) rotate(-80) scale(0.7)">
<path d="M0,-26 C17,-15 17,13 0,26 C-17,13 -17,-15 0,-26Z" fill="#4F9A4E"/>
<path d="M0,-22 L0,22" stroke="#3B6E2E" stroke-width="2" stroke-linecap="round"/>
<path d="M0,-26 C8,-18 9,-8 7,-2" stroke="#fff" stroke-width="2" fill="none" opacity=".25"/></g><circle cx="462" cy="170" r="42" fill="#E8C43A"/><circle cx="462" cy="170" r="34" fill="#F8E88A"/><path d="M462,170 L496.0,170.0" stroke="#E8C43A" stroke-width="2.5"/><path d="M462,170 L486.0,194.0" stroke="#E8C43A" stroke-width="2.5"/><path d="M462,170 L462.0,204.0" stroke="#E8C43A" stroke-width="2.5"/><path d="M462,170 L438.0,194.0" stroke="#E8C43A" stroke-width="2.5"/><path d="M462,170 L428.0,170.0" stroke="#E8C43A" stroke-width="2.5"/><path d="M462,170 L438.0,146.0" stroke="#E8C43A" stroke-width="2.5"/><path d="M462,170 L462.0,136.0" stroke="#E8C43A" stroke-width="2.5"/><path d="M462,170 L486.0,146.0" stroke="#E8C43A" stroke-width="2.5"/><path d="M352,200 L362,430" stroke="#fff" stroke-width="7" stroke-linecap="round" opacity=".55"/></svg>