<svg xmlns="http://www.w3.org/2000/svg" viewBox="0 0 800 600" width="800" height="600" role="img" aria-label="Panna Cotta"><title>Panna Cotta</title><defs><pattern id="g" width="56" height="56" patternUnits="userSpaceOnUse">
<rect width="56" height="56" fill="#F7F2EA"/>
<rect width="28.0" height="56" fill="#D9A23A" opacity="0.28"/>
<rect width="56" height="28.0" fill="#D9A23A" opacity="0.28"/>
</pattern></defs><rect width="800" height="600" fill="url(#g)"/><circle cx="410" cy="314" r="195" fill="#2B2A28" opacity=".13"/>
<circle cx="400" cy="300" r="195" fill="#FBFAF6"/>
<circle cx="400" cy="300" r="148.2" fill="none" stroke="#ECE7DE" stroke-width="3"/>
<path d="M232.3,241.5 A179.4,179.4 0 0 1 341.5,132.3" fill="none" stroke="#fff" stroke-width="7" stroke-linecap="round" opacity=".9"/><defs><radialGradient id="pc" cx=".4" cy=".38" r=".7"><stop offset="0" stop-color="#FFFDF7"/><stop offset=".8" stop-color="#F5EBD6"/><stop offset="1" stop-color="#E7D8B8"/></radialGradient></defs><circle cx="406" cy="310" r="100" fill="#2B2A28" opacity=".12"/><circle cx="400" cy="300" r="100" fill="url(#pc)"/><path d="M455.6,296.0 C454.8,304.0 452.2,309.8 449.8,318.8 C447.3,327.9 448.0,342.9 440.7,350.3 C433.4,357.7 417.3,363.7 406.0,363.2 C394.7,362.8 380.9,354.9 372.9,347.8 C364.9,340.8 359.7,329.7 358.0,321.0 C356.2,312.4 365.2,305.8 362.4,296.0 C359.6,286.2 337.9,268.4 341.3,262.3 C344.7,256.2 371.9,261.3 382.7,259.5 C393.4,257.7 397.7,252.2 406.0,251.5 C414.3,250.7 424.1,251.8 432.2,255.0 C440.2,258.3 450.5,264.0 454.4,270.8 C458.3,277.6 456.3,288.0 455.6,296.0 Z" fill="#A91E36"/><path d="M421.3,286.0 C422.0,289.0 416.6,294.3 412.8,296.3 C409.1,298.3 403.6,297.4 398.9,298.1 C394.2,298.7 388.1,301.5 384.7,300.3 C381.3,299.0 380.2,293.9 378.5,290.6 C376.9,287.3 374.4,284.2 374.9,280.4 C375.4,276.6 377.6,269.8 381.7,268.0 C385.9,266.3 395.5,268.1 399.9,269.9 C404.3,271.6 404.7,275.9 408.2,278.5 C411.8,281.2 420.5,283.0 421.3,286.0 Z" fill="#D4415A" opacity=".7"/><path d="M568.3,396.2 C565.0,400.3 559.4,405.2 552.8,404.0 C546.2,402.8 537.1,392.5 528.7,389.0 C520.4,385.4 509.4,387.4 502.8,382.7 C496.2,378.0 491.3,367.5 489.2,360.9 C487.2,354.3 487.3,346.9 490.5,343.0 C493.6,339.1 501.2,338.1 508.2,337.4 C515.1,336.8 524.1,335.6 532.1,338.9 C540.1,342.3 549.5,351.0 556.2,357.8 C562.9,364.5 570.2,373.0 572.2,379.4 C574.2,385.8 571.5,392.1 568.3,396.2 Z" fill="#A91E36"/><circle cx="380" cy="290" r="18" fill="#C92C45"/><circle cx="372.9" cy="296.6" r="3.2" fill="#E8627A" opacity="1"/><circle cx="371.2" cy="293.5" r="2.8" fill="#E8627A" opacity="1"/><circle cx="374.5" cy="283.5" r="2.5" fill="#E8627A" opacity="1"/><circle cx="370.5" cy="291.1" r="3.3" fill="#E8627A" opacity="1"/><circle cx="381.6" cy="279.1" r="3.1" fill="#E8627A" opacity="1"/><circle cx="377.4" cy="280.4" r="2.9" fill="#E8627A" opacity="1"/><circle cx="386.1" cy="285.0" r="3.3" fill="#E8627A" opacity="1"/><circle cx="387.8" cy="297.6" r="2.5" fill="#E8627A" opacity="1"/><circle cx="379.7" cy="295.8" r="3.5" fill="#E8627A" opacity="1"/><circle cx="426" cy="308" r="18" fill="#C92C45"/><circle cx="419.9" cy="302.6" r="2.9" fill="#E8627A" opacity="1"/><circle cx="427.7" cy="319.7" r="2.7" fill="#E8627A" opacity="1"/><circle cx="424.6" cy="318.3" r="3.5" fill="#E8627A" opacity="1"/><circle cx="428.2" cy="309.6" r="2.5" fill="#E8627A" opacity="1"/><circle cx="416.5" cy="312.5" r="3.4" fill="#E8627A" opacity="1"/><circle cx="420.5" cy="306.6" r="2.7" fill="#E8627A" opacity="1"/><circle cx="427.5" cy="304.5" r="2.9" fill="#E8627A" opacity="1"/><circle cx="421.0" cy="309.0" r="2.9" fill="#E8627A" opacity="1"/><circle cx="423.8" cy="317.2" r="2.7" fill="#E8627A" opacity="1"/><circle cx="520" cy="360" r="18" fill="#C92C45"/><circle cx="517.6" cy="368.9" r="2.6" fill="#E8627A" opacity="1"/><circle cx="517.2" cy="361.4" r="2.8" fill="#E8627A" opacity="1"/><circle cx="517.9" cy="353.5" r="2.7" fill="#E8627A" opacity="1"/><circle cx="519.6" cy="358.7" r="2.9" fill="#E8627A" opacity="1"/><circle cx="521.7" cy="358.5" r="3.3" fill="#E8627A" opacity="1"/><circle cx="514.1" cy="366.8" r="3.1" fill="#E8627A" opacity="1"/><circle cx="520.2" cy="361.5" r="2.6" fill="#E8627A" opacity="1"/><circle cx="522.3" cy="371.1" r="2.6" fill="#E8627A" opacity="1"/><circle cx="519.8" cy="358.4" r="2.7" fill="#E8627A" opacity="1"/><circle cx="282" cy="396" r="18" fill="#C92C45"/><circle cx="276.7" cy="400.4" r="3.0" fill="#E8627A" opacity="1"/><circle cx="279.3" cy="397.9" r="3.4" fill="#E8627A" opacity="1"/><circle cx="274.7" cy="398.9" r="3.2" fill="#E8627A" opacity="1"/><circle cx="278.1" cy="387.5" r="2.5" fill="#E8627A" opacity="1"/><circle cx="283.7" cy="383.2" r="2.7" fill="#E8627A" opacity="1"/><circle cx="287.6" cy="397.1" r="3.0" fill="#E8627A" opacity="1"/><circle cx="279.5" cy="395.4" r="2.8" fill="#E8627A" opacity="1"/><circle cx="271.6" cy="403.2" r="2.6" fill="#E8627A" opacity="1"/><circle cx="291.2" cy="401.3" r="2.9" fill="#E8627A" opacity="1"/><circle cx="410" cy="270" r="11" fill="#2F3566"/><circle cx="407" cy="267" r="3" fill="#6F77A8"/><circle cx="546" cy="384" r="11" fill="#2F3566"/><circle cx="543" cy="381" r="3" fill="#6F77A8"/><circle cx="304" cy="410" r="11" fill="#2F3566"/><circle cx="301" cy="407" r="3" fill="#6F77A8"/><circle cx="270" cy="380" r="11" fill="#2F3566"/><circle cx="267" cy="377" r="3" fill="#6F77A8"/><g transform="translate(436.0,262.0) rotate(40) scale(0.7)">
<path d="M0,-26 C17,-15 17,13 0,26 C-17,13 -17,-15 0,-26Z" fill="#4F9A4E"/>
<path d="M0,-22 L0,22" stroke="#3B6E2E" stroke-width="2" stroke-linecap="round"/>
<path d="M0,-26 C8,-18 9,-8 7,-2" stroke="#fff" stroke-width="2" fill="none" opacity=".25"/></g></svg>